<?xml version="1.0" encoding="UTF-8"?>
<!DOCTYPE svg PUBLIC "-//W3C//DTD SVG 1.1//EN" "http://www.w3.org/Graphics/SVG/1.1/DTD/svg11.dtd">
<svg xmlns="http://www.w3.org/2000/svg" version="1.1" width="180px" height="180px" style="shape-rendering:geometricPrecision; text-rendering:geometricPrecision; image-rendering:optimizeQuality; fill-rule:evenodd; clip-rule:evenodd" xmlns:xlink="http://www.w3.org/1999/xlink">
<g><path style="opacity:0.998" fill="#5542fe" d="M 13.5,-0.5 C 64.1667,-0.5 114.833,-0.5 165.5,-0.5C 168.263,1.0798 170.93,2.91313 173.5,5C 175.752,7.73612 177.752,10.5695 179.5,13.5C 179.5,64.1667 179.5,114.833 179.5,165.5C 177.92,168.263 176.087,170.93 174,173.5C 171.264,175.752 168.431,177.752 165.5,179.5C 114.833,179.5 64.1667,179.5 13.5,179.5C 10.737,177.92 8.07034,176.087 5.5,174C 3.24806,171.264 1.24806,168.431 -0.5,165.5C -0.5,114.833 -0.5,64.1667 -0.5,13.5C 1.0798,10.737 2.91313,8.07034 5,5.5C 7.73612,3.24806 10.5695,1.24806 13.5,-0.5 Z"/></g>
<g><path style="opacity:1" fill="#dcdcf2" d="M 91.5,69.5 C 72.8333,68.8333 54.1667,68.1667 35.5,67.5C 70.0154,55.8844 104.349,43.8844 138.5,31.5C 139.521,32.0016 139.688,32.6683 139,33.5C 124.751,54.9965 110.751,76.6632 97,98.5C 94.7347,88.9068 92.9013,79.2402 91.5,69.5 Z"/></g>
<g><path style="opacity:1" fill="#b9b3f5" d="M 35.5,67.5 C 54.1667,68.1667 72.8333,68.8333 91.5,69.5C 71.8305,69.6666 52.1638,69.5 32.5,69C 33.5266,68.4867 34.5266,67.9867 35.5,67.5 Z"/></g>
<g><path style="opacity:1" fill="#dcdcf2" d="M 87.5,109.5 C 105.833,110.167 124.167,110.833 142.5,111.5C 108.318,122.922 74.3178,134.922 40.5,147.5C 39.479,146.998 39.3123,146.332 40,145.5C 53.7508,123.663 67.7508,101.997 82,80.5C 84.6848,89.9326 86.5182,99.5993 87.5,109.5 Z"/></g>
<g><path style="opacity:1" fill="#c0bcf4" d="M 87.5,109.5 C 106.836,109.333 126.17,109.5 145.5,110C 144.473,110.513 143.473,111.013 142.5,111.5C 124.167,110.833 105.833,110.167 87.5,109.5 Z"/></g>
</svg>
